<svg width="141" height="14" viewBox="0 0 141 14" fill="none" xmlns="http://www.w3.org/2000/svg">
<path d="M5.38998 10.36C2.44998 10.36 -2.14577e-05 8.246 -2.14577e-05 5.334C-2.14577e-05 2.492 2.33798 0.280001 5.33398 0.280001C7.64398 0.280001 9.23998 1.68 9.23998 3.08H8.93198C8.93198 1.988 8.00798 0.966001 6.36998 0.966001C4.39598 0.966001 3.13598 2.534 3.13598 5.32C3.13598 8.092 4.35398 9.674 6.39798 9.674C7.60198 9.674 8.48398 9.128 8.95998 8.232H9.28198C8.69398 9.45 7.25198 10.36 5.38998 10.36ZM14.8714 3.08C15.8374 3.08 16.4674 3.724 16.4674 4.718H16.1734C16.1734 3.906 15.6554 3.388 14.8854 3.388C14.0454 3.388 13.3874 3.99 13.1074 4.942V10.22H10.0274V3.584L13.1074 3.15V4.27C13.4574 3.528 14.0874 3.08 14.8714 3.08ZM23.1291 3.22H23.5211L19.5451 12.306C19.1111 13.286 18.4951 13.44 17.7951 13.44C16.9971 13.44 16.2691 12.838 16.2691 12.11H16.5631C16.5631 12.698 17.1371 13.16 17.7951 13.16C18.3551 13.16 18.8871 12.992 19.1671 12.334L19.8811 10.696L16.6051 3.22H19.8671L21.4771 7.028L23.1291 3.22ZM26.2515 10.36C24.5435 10.36 23.2415 9.492 23.2415 8.4H23.5215C23.5215 9.31 24.5155 9.982 25.8175 9.982C26.6435 9.982 27.2315 9.772 27.2315 9.282C27.2315 8.89 26.8255 8.624 25.8035 8.078C25.0475 7.672 23.2135 7.084 23.2135 5.39C23.2135 3.962 24.4315 3.08 26.3075 3.08C27.8195 3.08 29.0095 3.864 29.0095 4.886H28.7435C28.7435 4.088 27.9035 3.458 26.7415 3.458C25.9015 3.458 25.3835 3.696 25.3835 4.186C25.3835 4.648 25.7615 4.886 26.7835 5.362C27.7915 5.852 29.3875 6.384 29.3875 8.008C29.3875 9.408 28.2815 10.36 26.2515 10.36ZM34.5966 9.058H34.8766C34.8766 9.786 33.8966 10.36 32.6226 10.36C31.1386 10.36 30.0886 9.492 30.0886 8.33V3.5H29.3326V3.22H30.0886V1.764L33.1686 1.176V3.22H34.6386V3.5H33.1686V8.82C33.1686 9.338 33.4766 9.702 33.8686 9.702C34.2746 9.702 34.5966 9.422 34.5966 9.058ZM38.7494 3.08C40.9754 3.08 42.5854 4.256 42.5854 5.81V10.22H39.5054V9.324C39.0574 9.94 38.1894 10.36 37.2514 10.36C35.9074 10.36 34.8994 9.506 34.8994 8.386C34.8994 7.224 36.1314 6.356 37.7414 6.356C38.4554 6.356 39.1554 6.538 39.5054 6.79V5.068C39.5054 4.088 38.8754 3.542 37.7834 3.542C36.7334 3.542 35.8094 4.186 35.8094 5.068H35.5154C35.5154 3.948 36.9014 3.08 38.7494 3.08ZM38.8054 9.422C39.0994 9.422 39.3374 9.254 39.5054 8.946V7.084C39.3794 6.944 39.1834 6.874 38.9734 6.874C38.4274 6.874 38.0354 7.364 38.0354 8.19C38.0354 8.918 38.3434 9.422 38.8054 9.422ZM43.6739 10.22V0.434L46.7539 9.53674e-07V10.22H43.6739ZM54.8594 10.36C52.7174 10.36 50.9534 9.142 50.9534 7.546H51.2614C51.2614 8.89 52.5634 9.884 54.2294 9.884C55.4334 9.884 56.3154 9.366 56.3154 8.54C56.3154 7.658 55.3214 7.224 54.2154 6.734C52.7174 6.09 51.0514 5.404 51.0514 3.444C51.0514 1.498 52.7174 0.280001 54.9714 0.280001C56.9594 0.280001 58.5134 1.4 58.5134 2.94H58.2054C58.2054 1.638 57.0294 0.728001 55.5874 0.728001C54.3554 0.728001 53.4594 1.33 53.4594 2.226C53.4594 3.234 54.5514 3.654 55.7554 4.144C57.2394 4.732 58.8914 5.39 58.8914 7.238C58.8914 9.03 57.2954 10.36 54.8594 10.36ZM64.2919 9.058H64.5719C64.5719 9.786 63.5919 10.36 62.3179 10.36C60.8339 10.36 59.7839 9.492 59.7839 8.33V3.5H59.0279V3.22H59.7839V1.764L62.8639 1.176V3.22H64.3339V3.5H62.8639V8.82C62.8639 9.338 63.1719 9.702 63.5639 9.702C63.9699 9.702 64.2919 9.422 64.2919 9.058ZM67.9991 10.36C65.7451 10.36 64.0511 8.792 64.0511 6.72C64.0511 4.648 65.7451 3.08 67.9991 3.08C70.2671 3.08 71.9611 4.648 71.9611 6.72C71.9611 8.792 70.2671 10.36 67.9991 10.36ZM67.9991 10.08C68.5311 10.08 68.8251 8.876 68.8251 6.72C68.8251 4.564 68.5311 3.36 67.9991 3.36C67.4671 3.36 67.1871 4.564 67.1871 6.72C67.1871 8.876 67.4671 10.08 67.9991 10.08ZM76.559 10.36C74.277 10.36 72.555 8.806 72.555 6.72C72.555 4.648 74.277 3.08 76.545 3.08C78.211 3.08 79.485 3.99 79.485 5.166H79.191C79.191 4.326 78.477 3.682 77.567 3.682C76.363 3.682 75.691 4.774 75.691 6.72C75.691 8.666 76.419 9.758 77.707 9.758C78.323 9.758 78.925 9.394 79.191 8.848H79.485C79.121 9.772 77.945 10.36 76.559 10.36ZM85.1637 10.22L83.2317 6.972L83.1757 7.014V10.22H80.0957V0.434L83.1757 9.53674e-07V6.636L87.3057 3.22H87.7957L85.4297 5.166L88.5097 10.22H85.1637ZM98.2323 10.22L95.6003 5.67L95.2923 5.95V10.22H92.2123V0.420001H95.2923V5.516L100.948 0.420001H101.438L97.7983 3.696L101.788 10.22H98.2323ZM106.17 9.87C106.926 9.87 107.598 9.492 108.018 8.806H108.34C107.906 9.73 106.688 10.36 105.274 10.36C102.824 10.36 101.088 8.792 101.088 6.706C101.088 4.648 102.782 3.08 104.91 3.08C107.01 3.08 108.55 4.592 108.55 6.636H104.224C104.28 8.946 104.952 9.87 106.17 9.87ZM104.994 3.36C104.476 3.36 104.224 4.676 104.224 6.342V6.356H105.722C105.708 4.466 105.456 3.36 104.994 3.36ZM114.237 9.87C114.993 9.87 115.665 9.492 116.085 8.806H116.407C115.973 9.73 114.755 10.36 113.341 10.36C110.891 10.36 109.155 8.792 109.155 6.706C109.155 4.648 110.849 3.08 112.977 3.08C115.077 3.08 116.617 4.592 116.617 6.636H112.291C112.347 8.946 113.019 9.87 114.237 9.87ZM113.061 3.36C112.543 3.36 112.291 4.676 112.291 6.342V6.356H113.789C113.775 4.466 113.523 3.36 113.061 3.36ZM122.6 3.08C124.238 3.08 125.442 4.648 125.442 6.72C125.442 8.792 124.224 10.36 122.572 10.36C121.732 10.36 120.962 9.94 120.486 9.296V13.3H117.406V3.584L120.486 3.15V4.186C120.934 3.528 121.732 3.08 122.6 3.08ZM121.298 9.52C121.914 9.52 122.306 8.4 122.306 6.72C122.306 5.054 121.928 3.934 121.34 3.934C121.004 3.934 120.682 4.256 120.486 4.774V8.764C120.696 9.24 120.976 9.52 121.298 9.52ZM131.121 9.87C131.877 9.87 132.549 9.492 132.969 8.806H133.291C132.857 9.73 131.639 10.36 130.225 10.36C127.775 10.36 126.039 8.792 126.039 6.706C126.039 4.648 127.733 3.08 129.861 3.08C131.961 3.08 133.501 4.592 133.501 6.636H129.175C129.231 8.946 129.903 9.87 131.121 9.87ZM129.945 3.36C129.427 3.36 129.175 4.676 129.175 6.342V6.356H130.673C130.659 4.466 130.407 3.36 129.945 3.36ZM139.135 3.08C140.101 3.08 140.731 3.724 140.731 4.718H140.437C140.437 3.906 139.919 3.388 139.149 3.388C138.309 3.388 137.651 3.99 137.371 4.942V10.22H134.291V3.584L137.371 3.15V4.27C137.721 3.528 138.351 3.08 139.135 3.08Z" fill="black"/>
</svg>
